<?xml version="1.0" encoding="iso-8859-1"?>
<!-- Uploaded to: SVG Repo, www.svgrepo.com, Generator: SVG Repo Mixer Tools -->
<!DOCTYPE svg PUBLIC "-//W3C//DTD SVG 1.1//EN" "http://www.w3.org/Graphics/SVG/1.1/DTD/svg11.dtd">
<svg fill="#000000" height="800px" width="800px" version="1.1" id="Capa_1" xmlns="http://www.w3.org/2000/svg" xmlns:xlink="http://www.w3.org/1999/xlink" 
	 viewBox="0 0 297 297" xml:space="preserve">
<g>
	<path d="M218.542,65.321L42.861,135.612c-3.934,1.573-6.466,5.436-6.342,9.671c0.125,4.234,2.88,7.94,6.899,9.28l74.264,24.758
		l24.753,74.286c1.34,4.02,5.046,6.775,9.281,6.901c0.1,0.002,0.199,0.004,0.299,0.004c4.118,0,7.837-2.507,9.373-6.348
		l70.279-175.721c1.499-3.75,0.62-8.033-2.236-10.889C226.577,64.699,222.293,63.82,218.542,65.321z M152.878,221.068l-17.635-52.92
		c-1.004-3.015-3.37-5.382-6.385-6.386l-52.911-17.64L204.17,92.821L152.878,221.068z"/>
	<path d="M148.5,0C66.653,0,0.067,66.616,0.067,148.499C0.067,230.383,66.653,297,148.5,297s148.433-66.617,148.433-148.501
		C296.933,66.616,230.347,0,148.5,0z M148.5,276.808c-70.712,0-128.24-57.56-128.24-128.309c0-70.748,57.528-128.307,128.24-128.307
		s128.24,57.559,128.24,128.307C276.74,219.248,219.212,276.808,148.5,276.808z"/>
</g>
</svg>