<?xml version="1.0" encoding="utf-8"?>
<!-- Generator: Adobe Illustrator 28.3.0, SVG Export Plug-In . SVG Version: 6.00 Build 0)  -->
<svg version="1.1" id="Capa_1" xmlns="http://www.w3.org/2000/svg" xmlns:xlink="http://www.w3.org/1999/xlink" x="0px" y="0px"
	 viewBox="0 0 800 800" style="enable-background:new 0 0 800 800;" xml:space="preserve">
<g>
	<path d="M702.3,128.4H97.7C43.8,128.4,0,172.3,0,226.2v347.7c0,53.9,43.8,97.7,97.7,97.7h604.6c53.9,0,97.7-43.8,97.7-97.7V226.2
		C800,172.3,756.2,128.4,702.3,128.4z M654.5,192.2L400,356.2l-254.5-164L654.5,192.2L654.5,192.2z M702.3,607.8H97.7
		c-18.7,0-34-15.2-34-34V228l316.6,203.6c0.4,0.3,0.9,0.4,1.3,0.7c0.5,0.3,0.9,0.5,1.4,0.7c2.5,1.3,5,2.3,7.6,3
		c0.3,0.1,0.5,0.1,0.8,0.2c2.8,0.7,5.7,1.1,8.6,1.1l0,0l0,0c2.9,0,5.7-0.4,8.6-1.1c0.3-0.1,0.5-0.1,0.8-0.2c2.6-0.7,5.1-1.7,7.6-3
		c0.5-0.2,0.9-0.5,1.4-0.7c0.4-0.2,0.9-0.4,1.3-0.7L736.3,228v345.9C736.3,592.6,721,607.8,702.3,607.8z"/>
</g>
</svg>
